<mxfile host="app.diagrams.net" modified="2023-02-04T14:37:06.066Z" agent="5.0 (Windows NT 10.0; Win64; x64) AppleWebKit/537.36 (KHTML, like Gecko) Chrome/109.0.0.0 Safari/537.36 Edg/109.0.1518.78" etag="f3EvrbZ3YFyeVYkasaHc" version="20.8.16" type="github">
  <diagram name="第 1 页" id="dq55SXjo3RK3Bnd-hJMV">
    <mxGraphModel dx="3583" dy="2676" grid="1" gridSize="10" guides="1" tooltips="1" connect="1" arrows="0" fold="1" page="1" pageScale="1" pageWidth="827" pageHeight="1169" math="1" shadow="0">
      <root>
        <mxCell id="0" />
        <mxCell id="1" parent="0" />
        <mxCell id="F97rTTew47wOwnzWSH56-309" value="" style="rounded=0;whiteSpace=wrap;html=1;fontSize=11;dashed=1;fillColor=none;" vertex="1" parent="1">
          <mxGeometry x="-21" y="-190" width="801" height="510" as="geometry" />
        </mxCell>
        <mxCell id="F97rTTew47wOwnzWSH56-214" style="edgeStyle=orthogonalEdgeStyle;rounded=0;orthogonalLoop=1;jettySize=auto;html=1;exitX=0.5;exitY=0;exitDx=0;exitDy=0;entryX=0.5;entryY=1;entryDx=0;entryDy=0;fontSize=15;" edge="1" parent="1" source="F97rTTew47wOwnzWSH56-20" target="F97rTTew47wOwnzWSH56-53">
          <mxGeometry relative="1" as="geometry" />
        </mxCell>
        <mxCell id="F97rTTew47wOwnzWSH56-20" value="" style="rounded=0;whiteSpace=wrap;html=1;fontSize=15;" vertex="1" parent="1">
          <mxGeometry x="275" y="330" width="210" height="170" as="geometry" />
        </mxCell>
        <mxCell id="F97rTTew47wOwnzWSH56-1" value="" style="rounded=0;whiteSpace=wrap;html=1;" vertex="1" parent="1">
          <mxGeometry x="275" y="510" width="210" height="30" as="geometry" />
        </mxCell>
        <mxCell id="F97rTTew47wOwnzWSH56-24" style="edgeStyle=orthogonalEdgeStyle;rounded=0;orthogonalLoop=1;jettySize=auto;html=1;fontSize=15;" edge="1" parent="1" source="F97rTTew47wOwnzWSH56-6" target="F97rTTew47wOwnzWSH56-21">
          <mxGeometry relative="1" as="geometry" />
        </mxCell>
        <mxCell id="F97rTTew47wOwnzWSH56-6" value="" style="ellipse;whiteSpace=wrap;html=1;aspect=fixed;" vertex="1" parent="1">
          <mxGeometry x="285" y="515" width="20" height="20" as="geometry" />
        </mxCell>
        <mxCell id="F97rTTew47wOwnzWSH56-36" style="edgeStyle=orthogonalEdgeStyle;rounded=0;orthogonalLoop=1;jettySize=auto;html=1;exitX=0.5;exitY=0;exitDx=0;exitDy=0;entryX=0.5;entryY=1;entryDx=0;entryDy=0;fontSize=15;" edge="1" parent="1" source="F97rTTew47wOwnzWSH56-7" target="F97rTTew47wOwnzWSH56-30">
          <mxGeometry relative="1" as="geometry" />
        </mxCell>
        <mxCell id="F97rTTew47wOwnzWSH56-7" value="" style="ellipse;whiteSpace=wrap;html=1;aspect=fixed;" vertex="1" parent="1">
          <mxGeometry x="325" y="515" width="20" height="20" as="geometry" />
        </mxCell>
        <mxCell id="F97rTTew47wOwnzWSH56-43" style="edgeStyle=orthogonalEdgeStyle;rounded=0;orthogonalLoop=1;jettySize=auto;html=1;exitX=0.5;exitY=0;exitDx=0;exitDy=0;entryX=0.5;entryY=1;entryDx=0;entryDy=0;fontSize=15;" edge="1" parent="1" source="F97rTTew47wOwnzWSH56-10" target="F97rTTew47wOwnzWSH56-37">
          <mxGeometry relative="1" as="geometry" />
        </mxCell>
        <mxCell id="F97rTTew47wOwnzWSH56-10" value="" style="ellipse;whiteSpace=wrap;html=1;aspect=fixed;" vertex="1" parent="1">
          <mxGeometry x="365" y="515" width="20" height="20" as="geometry" />
        </mxCell>
        <mxCell id="F97rTTew47wOwnzWSH56-50" style="edgeStyle=orthogonalEdgeStyle;rounded=0;orthogonalLoop=1;jettySize=auto;html=1;exitX=0.5;exitY=0;exitDx=0;exitDy=0;entryX=0.5;entryY=1;entryDx=0;entryDy=0;fontSize=15;" edge="1" parent="1" source="F97rTTew47wOwnzWSH56-11" target="F97rTTew47wOwnzWSH56-44">
          <mxGeometry relative="1" as="geometry" />
        </mxCell>
        <mxCell id="F97rTTew47wOwnzWSH56-11" value="" style="ellipse;whiteSpace=wrap;html=1;aspect=fixed;" vertex="1" parent="1">
          <mxGeometry x="445" y="515" width="20" height="20" as="geometry" />
        </mxCell>
        <mxCell id="F97rTTew47wOwnzWSH56-21" value="" style="rounded=0;whiteSpace=wrap;html=1;fontSize=15;" vertex="1" parent="1">
          <mxGeometry x="280" y="340" width="30" height="150" as="geometry" />
        </mxCell>
        <mxCell id="F97rTTew47wOwnzWSH56-25" value="" style="ellipse;whiteSpace=wrap;html=1;aspect=fixed;" vertex="1" parent="1">
          <mxGeometry x="285" y="460" width="20" height="20" as="geometry" />
        </mxCell>
        <mxCell id="F97rTTew47wOwnzWSH56-26" value="" style="ellipse;whiteSpace=wrap;html=1;aspect=fixed;" vertex="1" parent="1">
          <mxGeometry x="285" y="350" width="20" height="20" as="geometry" />
        </mxCell>
        <mxCell id="F97rTTew47wOwnzWSH56-27" value="" style="ellipse;whiteSpace=wrap;html=1;aspect=fixed;" vertex="1" parent="1">
          <mxGeometry x="285" y="380" width="20" height="20" as="geometry" />
        </mxCell>
        <mxCell id="F97rTTew47wOwnzWSH56-28" value="..." style="text;html=1;align=center;verticalAlign=middle;resizable=0;points=[];autosize=1;strokeColor=none;fillColor=none;fontSize=15;" vertex="1" parent="1">
          <mxGeometry x="275" y="400" width="40" height="30" as="geometry" />
        </mxCell>
        <mxCell id="F97rTTew47wOwnzWSH56-29" value="..." style="text;html=1;align=center;verticalAlign=middle;resizable=0;points=[];autosize=1;strokeColor=none;fillColor=none;fontSize=15;" vertex="1" parent="1">
          <mxGeometry x="275" y="420" width="40" height="30" as="geometry" />
        </mxCell>
        <mxCell id="F97rTTew47wOwnzWSH56-30" value="" style="rounded=0;whiteSpace=wrap;html=1;fontSize=15;" vertex="1" parent="1">
          <mxGeometry x="320" y="340" width="30" height="150" as="geometry" />
        </mxCell>
        <mxCell id="F97rTTew47wOwnzWSH56-31" value="" style="ellipse;whiteSpace=wrap;html=1;aspect=fixed;" vertex="1" parent="1">
          <mxGeometry x="325" y="460" width="20" height="20" as="geometry" />
        </mxCell>
        <mxCell id="F97rTTew47wOwnzWSH56-32" value="" style="ellipse;whiteSpace=wrap;html=1;aspect=fixed;" vertex="1" parent="1">
          <mxGeometry x="325" y="350" width="20" height="20" as="geometry" />
        </mxCell>
        <mxCell id="F97rTTew47wOwnzWSH56-33" value="" style="ellipse;whiteSpace=wrap;html=1;aspect=fixed;" vertex="1" parent="1">
          <mxGeometry x="325" y="380" width="20" height="20" as="geometry" />
        </mxCell>
        <mxCell id="F97rTTew47wOwnzWSH56-34" value="..." style="text;html=1;align=center;verticalAlign=middle;resizable=0;points=[];autosize=1;strokeColor=none;fillColor=none;fontSize=15;" vertex="1" parent="1">
          <mxGeometry x="315" y="400" width="40" height="30" as="geometry" />
        </mxCell>
        <mxCell id="F97rTTew47wOwnzWSH56-35" value="..." style="text;html=1;align=center;verticalAlign=middle;resizable=0;points=[];autosize=1;strokeColor=none;fillColor=none;fontSize=15;" vertex="1" parent="1">
          <mxGeometry x="315" y="420" width="40" height="30" as="geometry" />
        </mxCell>
        <mxCell id="F97rTTew47wOwnzWSH56-37" value="" style="rounded=0;whiteSpace=wrap;html=1;fontSize=15;" vertex="1" parent="1">
          <mxGeometry x="360" y="340" width="30" height="150" as="geometry" />
        </mxCell>
        <mxCell id="F97rTTew47wOwnzWSH56-38" value="" style="ellipse;whiteSpace=wrap;html=1;aspect=fixed;" vertex="1" parent="1">
          <mxGeometry x="365" y="460" width="20" height="20" as="geometry" />
        </mxCell>
        <mxCell id="F97rTTew47wOwnzWSH56-39" value="" style="ellipse;whiteSpace=wrap;html=1;aspect=fixed;" vertex="1" parent="1">
          <mxGeometry x="365" y="350" width="20" height="20" as="geometry" />
        </mxCell>
        <mxCell id="F97rTTew47wOwnzWSH56-40" value="" style="ellipse;whiteSpace=wrap;html=1;aspect=fixed;" vertex="1" parent="1">
          <mxGeometry x="365" y="380" width="20" height="20" as="geometry" />
        </mxCell>
        <mxCell id="F97rTTew47wOwnzWSH56-41" value="..." style="text;html=1;align=center;verticalAlign=middle;resizable=0;points=[];autosize=1;strokeColor=none;fillColor=none;fontSize=15;" vertex="1" parent="1">
          <mxGeometry x="355" y="400" width="40" height="30" as="geometry" />
        </mxCell>
        <mxCell id="F97rTTew47wOwnzWSH56-42" value="..." style="text;html=1;align=center;verticalAlign=middle;resizable=0;points=[];autosize=1;strokeColor=none;fillColor=none;fontSize=15;" vertex="1" parent="1">
          <mxGeometry x="355" y="420" width="40" height="30" as="geometry" />
        </mxCell>
        <mxCell id="F97rTTew47wOwnzWSH56-44" value="" style="rounded=0;whiteSpace=wrap;html=1;fontSize=15;" vertex="1" parent="1">
          <mxGeometry x="440" y="340" width="30" height="150" as="geometry" />
        </mxCell>
        <mxCell id="F97rTTew47wOwnzWSH56-45" value="" style="ellipse;whiteSpace=wrap;html=1;aspect=fixed;" vertex="1" parent="1">
          <mxGeometry x="445" y="460" width="20" height="20" as="geometry" />
        </mxCell>
        <mxCell id="F97rTTew47wOwnzWSH56-46" value="" style="ellipse;whiteSpace=wrap;html=1;aspect=fixed;" vertex="1" parent="1">
          <mxGeometry x="445" y="350" width="20" height="20" as="geometry" />
        </mxCell>
        <mxCell id="F97rTTew47wOwnzWSH56-47" value="" style="ellipse;whiteSpace=wrap;html=1;aspect=fixed;" vertex="1" parent="1">
          <mxGeometry x="445" y="380" width="20" height="20" as="geometry" />
        </mxCell>
        <mxCell id="F97rTTew47wOwnzWSH56-48" value="..." style="text;html=1;align=center;verticalAlign=middle;resizable=0;points=[];autosize=1;strokeColor=none;fillColor=none;fontSize=15;" vertex="1" parent="1">
          <mxGeometry x="435" y="400" width="40" height="30" as="geometry" />
        </mxCell>
        <mxCell id="F97rTTew47wOwnzWSH56-49" value="..." style="text;html=1;align=center;verticalAlign=middle;resizable=0;points=[];autosize=1;strokeColor=none;fillColor=none;fontSize=15;" vertex="1" parent="1">
          <mxGeometry x="435" y="420" width="40" height="30" as="geometry" />
        </mxCell>
        <mxCell id="F97rTTew47wOwnzWSH56-51" value="..." style="text;html=1;align=center;verticalAlign=middle;resizable=0;points=[];autosize=1;strokeColor=none;fillColor=none;fontSize=15;" vertex="1" parent="1">
          <mxGeometry x="395" y="410" width="40" height="30" as="geometry" />
        </mxCell>
        <mxCell id="F97rTTew47wOwnzWSH56-52" value="..." style="text;html=1;align=center;verticalAlign=middle;resizable=0;points=[];autosize=1;strokeColor=none;fillColor=none;fontSize=15;" vertex="1" parent="1">
          <mxGeometry x="395" y="505" width="40" height="30" as="geometry" />
        </mxCell>
        <mxCell id="F97rTTew47wOwnzWSH56-53" value="" style="rounded=0;whiteSpace=wrap;html=1;fontSize=15;" vertex="1" parent="1">
          <mxGeometry x="40" y="80" width="210" height="200" as="geometry" />
        </mxCell>
        <mxCell id="F97rTTew47wOwnzWSH56-54" value="" style="rounded=0;whiteSpace=wrap;html=1;fontSize=15;" vertex="1" parent="1">
          <mxGeometry x="45" y="120" width="30" height="150" as="geometry" />
        </mxCell>
        <mxCell id="F97rTTew47wOwnzWSH56-55" value="" style="ellipse;whiteSpace=wrap;html=1;aspect=fixed;" vertex="1" parent="1">
          <mxGeometry x="50" y="240" width="20" height="20" as="geometry" />
        </mxCell>
        <mxCell id="F97rTTew47wOwnzWSH56-56" value="" style="ellipse;whiteSpace=wrap;html=1;aspect=fixed;" vertex="1" parent="1">
          <mxGeometry x="50" y="130" width="20" height="20" as="geometry" />
        </mxCell>
        <mxCell id="F97rTTew47wOwnzWSH56-57" value="" style="ellipse;whiteSpace=wrap;html=1;aspect=fixed;" vertex="1" parent="1">
          <mxGeometry x="50" y="160" width="20" height="20" as="geometry" />
        </mxCell>
        <mxCell id="F97rTTew47wOwnzWSH56-58" value="..." style="text;html=1;align=center;verticalAlign=middle;resizable=0;points=[];autosize=1;strokeColor=none;fillColor=none;fontSize=15;" vertex="1" parent="1">
          <mxGeometry x="40" y="180" width="40" height="30" as="geometry" />
        </mxCell>
        <mxCell id="F97rTTew47wOwnzWSH56-59" value="..." style="text;html=1;align=center;verticalAlign=middle;resizable=0;points=[];autosize=1;strokeColor=none;fillColor=none;fontSize=15;" vertex="1" parent="1">
          <mxGeometry x="40" y="200" width="40" height="30" as="geometry" />
        </mxCell>
        <mxCell id="F97rTTew47wOwnzWSH56-60" value="" style="rounded=0;whiteSpace=wrap;html=1;fontSize=15;" vertex="1" parent="1">
          <mxGeometry x="85" y="120" width="30" height="150" as="geometry" />
        </mxCell>
        <mxCell id="F97rTTew47wOwnzWSH56-61" value="" style="ellipse;whiteSpace=wrap;html=1;aspect=fixed;" vertex="1" parent="1">
          <mxGeometry x="90" y="240" width="20" height="20" as="geometry" />
        </mxCell>
        <mxCell id="F97rTTew47wOwnzWSH56-62" value="" style="ellipse;whiteSpace=wrap;html=1;aspect=fixed;" vertex="1" parent="1">
          <mxGeometry x="90" y="130" width="20" height="20" as="geometry" />
        </mxCell>
        <mxCell id="F97rTTew47wOwnzWSH56-63" value="" style="ellipse;whiteSpace=wrap;html=1;aspect=fixed;" vertex="1" parent="1">
          <mxGeometry x="90" y="160" width="20" height="20" as="geometry" />
        </mxCell>
        <mxCell id="F97rTTew47wOwnzWSH56-64" value="..." style="text;html=1;align=center;verticalAlign=middle;resizable=0;points=[];autosize=1;strokeColor=none;fillColor=none;fontSize=15;" vertex="1" parent="1">
          <mxGeometry x="80" y="180" width="40" height="30" as="geometry" />
        </mxCell>
        <mxCell id="F97rTTew47wOwnzWSH56-65" value="..." style="text;html=1;align=center;verticalAlign=middle;resizable=0;points=[];autosize=1;strokeColor=none;fillColor=none;fontSize=15;" vertex="1" parent="1">
          <mxGeometry x="80" y="200" width="40" height="30" as="geometry" />
        </mxCell>
        <mxCell id="F97rTTew47wOwnzWSH56-66" value="" style="rounded=0;whiteSpace=wrap;html=1;fontSize=15;" vertex="1" parent="1">
          <mxGeometry x="125" y="120" width="30" height="150" as="geometry" />
        </mxCell>
        <mxCell id="F97rTTew47wOwnzWSH56-67" value="" style="ellipse;whiteSpace=wrap;html=1;aspect=fixed;" vertex="1" parent="1">
          <mxGeometry x="130" y="240" width="20" height="20" as="geometry" />
        </mxCell>
        <mxCell id="F97rTTew47wOwnzWSH56-68" value="" style="ellipse;whiteSpace=wrap;html=1;aspect=fixed;" vertex="1" parent="1">
          <mxGeometry x="130" y="130" width="20" height="20" as="geometry" />
        </mxCell>
        <mxCell id="F97rTTew47wOwnzWSH56-69" value="" style="ellipse;whiteSpace=wrap;html=1;aspect=fixed;" vertex="1" parent="1">
          <mxGeometry x="130" y="160" width="20" height="20" as="geometry" />
        </mxCell>
        <mxCell id="F97rTTew47wOwnzWSH56-70" value="..." style="text;html=1;align=center;verticalAlign=middle;resizable=0;points=[];autosize=1;strokeColor=none;fillColor=none;fontSize=15;" vertex="1" parent="1">
          <mxGeometry x="120" y="180" width="40" height="30" as="geometry" />
        </mxCell>
        <mxCell id="F97rTTew47wOwnzWSH56-71" value="..." style="text;html=1;align=center;verticalAlign=middle;resizable=0;points=[];autosize=1;strokeColor=none;fillColor=none;fontSize=15;" vertex="1" parent="1">
          <mxGeometry x="120" y="200" width="40" height="30" as="geometry" />
        </mxCell>
        <mxCell id="F97rTTew47wOwnzWSH56-72" value="" style="rounded=0;whiteSpace=wrap;html=1;fontSize=15;" vertex="1" parent="1">
          <mxGeometry x="205" y="120" width="30" height="150" as="geometry" />
        </mxCell>
        <mxCell id="F97rTTew47wOwnzWSH56-73" value="" style="ellipse;whiteSpace=wrap;html=1;aspect=fixed;" vertex="1" parent="1">
          <mxGeometry x="210" y="240" width="20" height="20" as="geometry" />
        </mxCell>
        <mxCell id="F97rTTew47wOwnzWSH56-74" value="" style="ellipse;whiteSpace=wrap;html=1;aspect=fixed;" vertex="1" parent="1">
          <mxGeometry x="210" y="130" width="20" height="20" as="geometry" />
        </mxCell>
        <mxCell id="F97rTTew47wOwnzWSH56-75" value="" style="ellipse;whiteSpace=wrap;html=1;aspect=fixed;" vertex="1" parent="1">
          <mxGeometry x="210" y="160" width="20" height="20" as="geometry" />
        </mxCell>
        <mxCell id="F97rTTew47wOwnzWSH56-76" value="..." style="text;html=1;align=center;verticalAlign=middle;resizable=0;points=[];autosize=1;strokeColor=none;fillColor=none;fontSize=15;" vertex="1" parent="1">
          <mxGeometry x="200" y="180" width="40" height="30" as="geometry" />
        </mxCell>
        <mxCell id="F97rTTew47wOwnzWSH56-77" value="..." style="text;html=1;align=center;verticalAlign=middle;resizable=0;points=[];autosize=1;strokeColor=none;fillColor=none;fontSize=15;" vertex="1" parent="1">
          <mxGeometry x="200" y="200" width="40" height="30" as="geometry" />
        </mxCell>
        <mxCell id="F97rTTew47wOwnzWSH56-78" value="..." style="text;html=1;align=center;verticalAlign=middle;resizable=0;points=[];autosize=1;strokeColor=none;fillColor=none;fontSize=15;" vertex="1" parent="1">
          <mxGeometry x="160" y="190" width="40" height="30" as="geometry" />
        </mxCell>
        <mxCell id="F97rTTew47wOwnzWSH56-105" value="Q" style="text;html=1;align=center;verticalAlign=middle;resizable=0;points=[];autosize=1;strokeColor=none;fillColor=none;fontSize=15;" vertex="1" parent="1">
          <mxGeometry x="120" y="80" width="40" height="30" as="geometry" />
        </mxCell>
        <mxCell id="F97rTTew47wOwnzWSH56-106" value="" style="rounded=0;whiteSpace=wrap;html=1;fontSize=15;" vertex="1" parent="1">
          <mxGeometry x="275" y="80" width="210" height="200" as="geometry" />
        </mxCell>
        <mxCell id="F97rTTew47wOwnzWSH56-107" value="" style="rounded=0;whiteSpace=wrap;html=1;fontSize=15;" vertex="1" parent="1">
          <mxGeometry x="280" y="120" width="30" height="150" as="geometry" />
        </mxCell>
        <mxCell id="F97rTTew47wOwnzWSH56-108" value="" style="ellipse;whiteSpace=wrap;html=1;aspect=fixed;" vertex="1" parent="1">
          <mxGeometry x="285" y="240" width="20" height="20" as="geometry" />
        </mxCell>
        <mxCell id="F97rTTew47wOwnzWSH56-109" value="" style="ellipse;whiteSpace=wrap;html=1;aspect=fixed;" vertex="1" parent="1">
          <mxGeometry x="285" y="130" width="20" height="20" as="geometry" />
        </mxCell>
        <mxCell id="F97rTTew47wOwnzWSH56-110" value="" style="ellipse;whiteSpace=wrap;html=1;aspect=fixed;" vertex="1" parent="1">
          <mxGeometry x="285" y="160" width="20" height="20" as="geometry" />
        </mxCell>
        <mxCell id="F97rTTew47wOwnzWSH56-111" value="..." style="text;html=1;align=center;verticalAlign=middle;resizable=0;points=[];autosize=1;strokeColor=none;fillColor=none;fontSize=15;" vertex="1" parent="1">
          <mxGeometry x="275" y="180" width="40" height="30" as="geometry" />
        </mxCell>
        <mxCell id="F97rTTew47wOwnzWSH56-112" value="..." style="text;html=1;align=center;verticalAlign=middle;resizable=0;points=[];autosize=1;strokeColor=none;fillColor=none;fontSize=15;" vertex="1" parent="1">
          <mxGeometry x="275" y="200" width="40" height="30" as="geometry" />
        </mxCell>
        <mxCell id="F97rTTew47wOwnzWSH56-113" value="" style="rounded=0;whiteSpace=wrap;html=1;fontSize=15;" vertex="1" parent="1">
          <mxGeometry x="320" y="120" width="30" height="150" as="geometry" />
        </mxCell>
        <mxCell id="F97rTTew47wOwnzWSH56-114" value="" style="ellipse;whiteSpace=wrap;html=1;aspect=fixed;" vertex="1" parent="1">
          <mxGeometry x="325" y="240" width="20" height="20" as="geometry" />
        </mxCell>
        <mxCell id="F97rTTew47wOwnzWSH56-115" value="" style="ellipse;whiteSpace=wrap;html=1;aspect=fixed;" vertex="1" parent="1">
          <mxGeometry x="325" y="130" width="20" height="20" as="geometry" />
        </mxCell>
        <mxCell id="F97rTTew47wOwnzWSH56-116" value="" style="ellipse;whiteSpace=wrap;html=1;aspect=fixed;" vertex="1" parent="1">
          <mxGeometry x="325" y="160" width="20" height="20" as="geometry" />
        </mxCell>
        <mxCell id="F97rTTew47wOwnzWSH56-117" value="..." style="text;html=1;align=center;verticalAlign=middle;resizable=0;points=[];autosize=1;strokeColor=none;fillColor=none;fontSize=15;" vertex="1" parent="1">
          <mxGeometry x="315" y="180" width="40" height="30" as="geometry" />
        </mxCell>
        <mxCell id="F97rTTew47wOwnzWSH56-118" value="..." style="text;html=1;align=center;verticalAlign=middle;resizable=0;points=[];autosize=1;strokeColor=none;fillColor=none;fontSize=15;" vertex="1" parent="1">
          <mxGeometry x="315" y="200" width="40" height="30" as="geometry" />
        </mxCell>
        <mxCell id="F97rTTew47wOwnzWSH56-119" value="" style="rounded=0;whiteSpace=wrap;html=1;fontSize=15;" vertex="1" parent="1">
          <mxGeometry x="360" y="120" width="30" height="150" as="geometry" />
        </mxCell>
        <mxCell id="F97rTTew47wOwnzWSH56-120" value="" style="ellipse;whiteSpace=wrap;html=1;aspect=fixed;" vertex="1" parent="1">
          <mxGeometry x="365" y="240" width="20" height="20" as="geometry" />
        </mxCell>
        <mxCell id="F97rTTew47wOwnzWSH56-121" value="" style="ellipse;whiteSpace=wrap;html=1;aspect=fixed;" vertex="1" parent="1">
          <mxGeometry x="365" y="130" width="20" height="20" as="geometry" />
        </mxCell>
        <mxCell id="F97rTTew47wOwnzWSH56-122" value="" style="ellipse;whiteSpace=wrap;html=1;aspect=fixed;" vertex="1" parent="1">
          <mxGeometry x="365" y="160" width="20" height="20" as="geometry" />
        </mxCell>
        <mxCell id="F97rTTew47wOwnzWSH56-123" value="..." style="text;html=1;align=center;verticalAlign=middle;resizable=0;points=[];autosize=1;strokeColor=none;fillColor=none;fontSize=15;" vertex="1" parent="1">
          <mxGeometry x="355" y="180" width="40" height="30" as="geometry" />
        </mxCell>
        <mxCell id="F97rTTew47wOwnzWSH56-124" value="..." style="text;html=1;align=center;verticalAlign=middle;resizable=0;points=[];autosize=1;strokeColor=none;fillColor=none;fontSize=15;" vertex="1" parent="1">
          <mxGeometry x="355" y="200" width="40" height="30" as="geometry" />
        </mxCell>
        <mxCell id="F97rTTew47wOwnzWSH56-125" value="" style="rounded=0;whiteSpace=wrap;html=1;fontSize=15;" vertex="1" parent="1">
          <mxGeometry x="440" y="120" width="30" height="150" as="geometry" />
        </mxCell>
        <mxCell id="F97rTTew47wOwnzWSH56-126" value="" style="ellipse;whiteSpace=wrap;html=1;aspect=fixed;" vertex="1" parent="1">
          <mxGeometry x="445" y="240" width="20" height="20" as="geometry" />
        </mxCell>
        <mxCell id="F97rTTew47wOwnzWSH56-127" value="" style="ellipse;whiteSpace=wrap;html=1;aspect=fixed;" vertex="1" parent="1">
          <mxGeometry x="445" y="130" width="20" height="20" as="geometry" />
        </mxCell>
        <mxCell id="F97rTTew47wOwnzWSH56-128" value="" style="ellipse;whiteSpace=wrap;html=1;aspect=fixed;" vertex="1" parent="1">
          <mxGeometry x="445" y="160" width="20" height="20" as="geometry" />
        </mxCell>
        <mxCell id="F97rTTew47wOwnzWSH56-129" value="..." style="text;html=1;align=center;verticalAlign=middle;resizable=0;points=[];autosize=1;strokeColor=none;fillColor=none;fontSize=15;" vertex="1" parent="1">
          <mxGeometry x="435" y="180" width="40" height="30" as="geometry" />
        </mxCell>
        <mxCell id="F97rTTew47wOwnzWSH56-130" value="..." style="text;html=1;align=center;verticalAlign=middle;resizable=0;points=[];autosize=1;strokeColor=none;fillColor=none;fontSize=15;" vertex="1" parent="1">
          <mxGeometry x="435" y="200" width="40" height="30" as="geometry" />
        </mxCell>
        <mxCell id="F97rTTew47wOwnzWSH56-131" value="..." style="text;html=1;align=center;verticalAlign=middle;resizable=0;points=[];autosize=1;strokeColor=none;fillColor=none;fontSize=15;" vertex="1" parent="1">
          <mxGeometry x="395" y="190" width="40" height="30" as="geometry" />
        </mxCell>
        <mxCell id="F97rTTew47wOwnzWSH56-132" value="K" style="text;html=1;align=center;verticalAlign=middle;resizable=0;points=[];autosize=1;strokeColor=none;fillColor=none;fontSize=15;" vertex="1" parent="1">
          <mxGeometry x="360" y="80" width="30" height="30" as="geometry" />
        </mxCell>
        <mxCell id="F97rTTew47wOwnzWSH56-133" value="" style="rounded=0;whiteSpace=wrap;html=1;fontSize=15;" vertex="1" parent="1">
          <mxGeometry x="510" y="80" width="210" height="200" as="geometry" />
        </mxCell>
        <mxCell id="F97rTTew47wOwnzWSH56-134" value="" style="rounded=0;whiteSpace=wrap;html=1;fontSize=15;" vertex="1" parent="1">
          <mxGeometry x="515" y="120" width="30" height="150" as="geometry" />
        </mxCell>
        <mxCell id="F97rTTew47wOwnzWSH56-135" value="" style="ellipse;whiteSpace=wrap;html=1;aspect=fixed;" vertex="1" parent="1">
          <mxGeometry x="520" y="240" width="20" height="20" as="geometry" />
        </mxCell>
        <mxCell id="F97rTTew47wOwnzWSH56-136" value="" style="ellipse;whiteSpace=wrap;html=1;aspect=fixed;" vertex="1" parent="1">
          <mxGeometry x="520" y="130" width="20" height="20" as="geometry" />
        </mxCell>
        <mxCell id="F97rTTew47wOwnzWSH56-137" value="" style="ellipse;whiteSpace=wrap;html=1;aspect=fixed;" vertex="1" parent="1">
          <mxGeometry x="520" y="160" width="20" height="20" as="geometry" />
        </mxCell>
        <mxCell id="F97rTTew47wOwnzWSH56-138" value="..." style="text;html=1;align=center;verticalAlign=middle;resizable=0;points=[];autosize=1;strokeColor=none;fillColor=none;fontSize=15;" vertex="1" parent="1">
          <mxGeometry x="510" y="180" width="40" height="30" as="geometry" />
        </mxCell>
        <mxCell id="F97rTTew47wOwnzWSH56-139" value="..." style="text;html=1;align=center;verticalAlign=middle;resizable=0;points=[];autosize=1;strokeColor=none;fillColor=none;fontSize=15;" vertex="1" parent="1">
          <mxGeometry x="510" y="200" width="40" height="30" as="geometry" />
        </mxCell>
        <mxCell id="F97rTTew47wOwnzWSH56-140" value="" style="rounded=0;whiteSpace=wrap;html=1;fontSize=15;" vertex="1" parent="1">
          <mxGeometry x="555" y="120" width="30" height="150" as="geometry" />
        </mxCell>
        <mxCell id="F97rTTew47wOwnzWSH56-141" value="" style="ellipse;whiteSpace=wrap;html=1;aspect=fixed;" vertex="1" parent="1">
          <mxGeometry x="560" y="240" width="20" height="20" as="geometry" />
        </mxCell>
        <mxCell id="F97rTTew47wOwnzWSH56-142" value="" style="ellipse;whiteSpace=wrap;html=1;aspect=fixed;" vertex="1" parent="1">
          <mxGeometry x="560" y="130" width="20" height="20" as="geometry" />
        </mxCell>
        <mxCell id="F97rTTew47wOwnzWSH56-143" value="" style="ellipse;whiteSpace=wrap;html=1;aspect=fixed;" vertex="1" parent="1">
          <mxGeometry x="560" y="160" width="20" height="20" as="geometry" />
        </mxCell>
        <mxCell id="F97rTTew47wOwnzWSH56-144" value="..." style="text;html=1;align=center;verticalAlign=middle;resizable=0;points=[];autosize=1;strokeColor=none;fillColor=none;fontSize=15;" vertex="1" parent="1">
          <mxGeometry x="550" y="180" width="40" height="30" as="geometry" />
        </mxCell>
        <mxCell id="F97rTTew47wOwnzWSH56-145" value="..." style="text;html=1;align=center;verticalAlign=middle;resizable=0;points=[];autosize=1;strokeColor=none;fillColor=none;fontSize=15;" vertex="1" parent="1">
          <mxGeometry x="550" y="200" width="40" height="30" as="geometry" />
        </mxCell>
        <mxCell id="F97rTTew47wOwnzWSH56-146" value="" style="rounded=0;whiteSpace=wrap;html=1;fontSize=15;" vertex="1" parent="1">
          <mxGeometry x="595" y="120" width="30" height="150" as="geometry" />
        </mxCell>
        <mxCell id="F97rTTew47wOwnzWSH56-147" value="" style="ellipse;whiteSpace=wrap;html=1;aspect=fixed;" vertex="1" parent="1">
          <mxGeometry x="600" y="240" width="20" height="20" as="geometry" />
        </mxCell>
        <mxCell id="F97rTTew47wOwnzWSH56-148" value="" style="ellipse;whiteSpace=wrap;html=1;aspect=fixed;" vertex="1" parent="1">
          <mxGeometry x="600" y="130" width="20" height="20" as="geometry" />
        </mxCell>
        <mxCell id="F97rTTew47wOwnzWSH56-149" value="" style="ellipse;whiteSpace=wrap;html=1;aspect=fixed;" vertex="1" parent="1">
          <mxGeometry x="600" y="160" width="20" height="20" as="geometry" />
        </mxCell>
        <mxCell id="F97rTTew47wOwnzWSH56-150" value="..." style="text;html=1;align=center;verticalAlign=middle;resizable=0;points=[];autosize=1;strokeColor=none;fillColor=none;fontSize=15;" vertex="1" parent="1">
          <mxGeometry x="590" y="180" width="40" height="30" as="geometry" />
        </mxCell>
        <mxCell id="F97rTTew47wOwnzWSH56-151" value="..." style="text;html=1;align=center;verticalAlign=middle;resizable=0;points=[];autosize=1;strokeColor=none;fillColor=none;fontSize=15;" vertex="1" parent="1">
          <mxGeometry x="590" y="200" width="40" height="30" as="geometry" />
        </mxCell>
        <mxCell id="F97rTTew47wOwnzWSH56-152" value="" style="rounded=0;whiteSpace=wrap;html=1;fontSize=15;" vertex="1" parent="1">
          <mxGeometry x="675" y="120" width="30" height="150" as="geometry" />
        </mxCell>
        <mxCell id="F97rTTew47wOwnzWSH56-153" value="" style="ellipse;whiteSpace=wrap;html=1;aspect=fixed;" vertex="1" parent="1">
          <mxGeometry x="680" y="240" width="20" height="20" as="geometry" />
        </mxCell>
        <mxCell id="F97rTTew47wOwnzWSH56-154" value="" style="ellipse;whiteSpace=wrap;html=1;aspect=fixed;" vertex="1" parent="1">
          <mxGeometry x="680" y="130" width="20" height="20" as="geometry" />
        </mxCell>
        <mxCell id="F97rTTew47wOwnzWSH56-155" value="" style="ellipse;whiteSpace=wrap;html=1;aspect=fixed;" vertex="1" parent="1">
          <mxGeometry x="680" y="160" width="20" height="20" as="geometry" />
        </mxCell>
        <mxCell id="F97rTTew47wOwnzWSH56-156" value="..." style="text;html=1;align=center;verticalAlign=middle;resizable=0;points=[];autosize=1;strokeColor=none;fillColor=none;fontSize=15;" vertex="1" parent="1">
          <mxGeometry x="670" y="180" width="40" height="30" as="geometry" />
        </mxCell>
        <mxCell id="F97rTTew47wOwnzWSH56-157" value="..." style="text;html=1;align=center;verticalAlign=middle;resizable=0;points=[];autosize=1;strokeColor=none;fillColor=none;fontSize=15;" vertex="1" parent="1">
          <mxGeometry x="670" y="200" width="40" height="30" as="geometry" />
        </mxCell>
        <mxCell id="F97rTTew47wOwnzWSH56-158" value="..." style="text;html=1;align=center;verticalAlign=middle;resizable=0;points=[];autosize=1;strokeColor=none;fillColor=none;fontSize=15;" vertex="1" parent="1">
          <mxGeometry x="630" y="190" width="40" height="30" as="geometry" />
        </mxCell>
        <mxCell id="F97rTTew47wOwnzWSH56-159" value="V" style="text;html=1;align=center;verticalAlign=middle;resizable=0;points=[];autosize=1;strokeColor=none;fillColor=none;fontSize=15;" vertex="1" parent="1">
          <mxGeometry x="595" y="80" width="30" height="30" as="geometry" />
        </mxCell>
        <mxCell id="F97rTTew47wOwnzWSH56-215" value="" style="endArrow=classic;html=1;rounded=0;fontSize=15;exitX=0.5;exitY=0;exitDx=0;exitDy=0;entryX=0.5;entryY=1;entryDx=0;entryDy=0;" edge="1" parent="1" source="F97rTTew47wOwnzWSH56-20" target="F97rTTew47wOwnzWSH56-106">
          <mxGeometry width="50" height="50" relative="1" as="geometry">
            <mxPoint x="50" y="530" as="sourcePoint" />
            <mxPoint x="100" y="480" as="targetPoint" />
          </mxGeometry>
        </mxCell>
        <mxCell id="F97rTTew47wOwnzWSH56-216" value="" style="endArrow=classic;html=1;rounded=0;fontSize=15;exitX=0.5;exitY=0;exitDx=0;exitDy=0;entryX=0.5;entryY=1;entryDx=0;entryDy=0;" edge="1" parent="1" target="F97rTTew47wOwnzWSH56-133">
          <mxGeometry width="50" height="50" relative="1" as="geometry">
            <mxPoint x="380" y="325" as="sourcePoint" />
            <mxPoint x="670" y="305" as="targetPoint" />
            <Array as="points">
              <mxPoint x="380" y="305" />
              <mxPoint x="615" y="305" />
            </Array>
          </mxGeometry>
        </mxCell>
        <mxCell id="F97rTTew47wOwnzWSH56-220" value="&lt;font style=&quot;font-size: 11px;&quot;&gt;$$W_q$$&lt;/font&gt;" style="text;html=1;align=center;verticalAlign=middle;resizable=0;points=[];autosize=1;strokeColor=none;fillColor=none;fontSize=15;" vertex="1" parent="1">
          <mxGeometry x="220" y="280" width="70" height="30" as="geometry" />
        </mxCell>
        <mxCell id="F97rTTew47wOwnzWSH56-248" value="&lt;font style=&quot;font-size: 11px;&quot;&gt;$$W_v$$&lt;/font&gt;" style="text;html=1;align=center;verticalAlign=middle;resizable=0;points=[];autosize=1;strokeColor=none;fillColor=none;fontSize=15;" vertex="1" parent="1">
          <mxGeometry x="495" y="280" width="70" height="30" as="geometry" />
        </mxCell>
        <mxCell id="F97rTTew47wOwnzWSH56-249" value="&lt;font style=&quot;font-size: 11px;&quot;&gt;$$W_k$$&lt;/font&gt;" style="text;html=1;align=center;verticalAlign=middle;resizable=0;points=[];autosize=1;strokeColor=none;fillColor=none;fontSize=15;" vertex="1" parent="1">
          <mxGeometry x="360" y="280" width="70" height="30" as="geometry" />
        </mxCell>
        <mxCell id="F97rTTew47wOwnzWSH56-277" value="" style="rounded=0;whiteSpace=wrap;html=1;fontSize=15;" vertex="1" parent="1">
          <mxGeometry x="270" y="-180" width="210" height="170" as="geometry" />
        </mxCell>
        <mxCell id="F97rTTew47wOwnzWSH56-278" value="" style="rounded=0;whiteSpace=wrap;html=1;fontSize=15;" vertex="1" parent="1">
          <mxGeometry x="275" y="-170" width="30" height="150" as="geometry" />
        </mxCell>
        <mxCell id="F97rTTew47wOwnzWSH56-279" value="" style="ellipse;whiteSpace=wrap;html=1;aspect=fixed;" vertex="1" parent="1">
          <mxGeometry x="280" y="-50" width="20" height="20" as="geometry" />
        </mxCell>
        <mxCell id="F97rTTew47wOwnzWSH56-280" value="" style="ellipse;whiteSpace=wrap;html=1;aspect=fixed;" vertex="1" parent="1">
          <mxGeometry x="280" y="-160" width="20" height="20" as="geometry" />
        </mxCell>
        <mxCell id="F97rTTew47wOwnzWSH56-281" value="" style="ellipse;whiteSpace=wrap;html=1;aspect=fixed;" vertex="1" parent="1">
          <mxGeometry x="280" y="-130" width="20" height="20" as="geometry" />
        </mxCell>
        <mxCell id="F97rTTew47wOwnzWSH56-282" value="..." style="text;html=1;align=center;verticalAlign=middle;resizable=0;points=[];autosize=1;strokeColor=none;fillColor=none;fontSize=15;" vertex="1" parent="1">
          <mxGeometry x="270" y="-110" width="40" height="30" as="geometry" />
        </mxCell>
        <mxCell id="F97rTTew47wOwnzWSH56-283" value="..." style="text;html=1;align=center;verticalAlign=middle;resizable=0;points=[];autosize=1;strokeColor=none;fillColor=none;fontSize=15;" vertex="1" parent="1">
          <mxGeometry x="270" y="-90" width="40" height="30" as="geometry" />
        </mxCell>
        <mxCell id="F97rTTew47wOwnzWSH56-284" value="" style="rounded=0;whiteSpace=wrap;html=1;fontSize=15;" vertex="1" parent="1">
          <mxGeometry x="315" y="-170" width="30" height="150" as="geometry" />
        </mxCell>
        <mxCell id="F97rTTew47wOwnzWSH56-285" value="" style="ellipse;whiteSpace=wrap;html=1;aspect=fixed;" vertex="1" parent="1">
          <mxGeometry x="320" y="-50" width="20" height="20" as="geometry" />
        </mxCell>
        <mxCell id="F97rTTew47wOwnzWSH56-286" value="" style="ellipse;whiteSpace=wrap;html=1;aspect=fixed;" vertex="1" parent="1">
          <mxGeometry x="320" y="-160" width="20" height="20" as="geometry" />
        </mxCell>
        <mxCell id="F97rTTew47wOwnzWSH56-287" value="" style="ellipse;whiteSpace=wrap;html=1;aspect=fixed;" vertex="1" parent="1">
          <mxGeometry x="320" y="-130" width="20" height="20" as="geometry" />
        </mxCell>
        <mxCell id="F97rTTew47wOwnzWSH56-288" value="..." style="text;html=1;align=center;verticalAlign=middle;resizable=0;points=[];autosize=1;strokeColor=none;fillColor=none;fontSize=15;" vertex="1" parent="1">
          <mxGeometry x="310" y="-110" width="40" height="30" as="geometry" />
        </mxCell>
        <mxCell id="F97rTTew47wOwnzWSH56-289" value="..." style="text;html=1;align=center;verticalAlign=middle;resizable=0;points=[];autosize=1;strokeColor=none;fillColor=none;fontSize=15;" vertex="1" parent="1">
          <mxGeometry x="310" y="-90" width="40" height="30" as="geometry" />
        </mxCell>
        <mxCell id="F97rTTew47wOwnzWSH56-290" value="" style="rounded=0;whiteSpace=wrap;html=1;fontSize=15;" vertex="1" parent="1">
          <mxGeometry x="355" y="-170" width="30" height="150" as="geometry" />
        </mxCell>
        <mxCell id="F97rTTew47wOwnzWSH56-291" value="" style="ellipse;whiteSpace=wrap;html=1;aspect=fixed;" vertex="1" parent="1">
          <mxGeometry x="360" y="-50" width="20" height="20" as="geometry" />
        </mxCell>
        <mxCell id="F97rTTew47wOwnzWSH56-292" value="" style="ellipse;whiteSpace=wrap;html=1;aspect=fixed;" vertex="1" parent="1">
          <mxGeometry x="360" y="-160" width="20" height="20" as="geometry" />
        </mxCell>
        <mxCell id="F97rTTew47wOwnzWSH56-293" value="" style="ellipse;whiteSpace=wrap;html=1;aspect=fixed;" vertex="1" parent="1">
          <mxGeometry x="360" y="-130" width="20" height="20" as="geometry" />
        </mxCell>
        <mxCell id="F97rTTew47wOwnzWSH56-294" value="..." style="text;html=1;align=center;verticalAlign=middle;resizable=0;points=[];autosize=1;strokeColor=none;fillColor=none;fontSize=15;" vertex="1" parent="1">
          <mxGeometry x="350" y="-110" width="40" height="30" as="geometry" />
        </mxCell>
        <mxCell id="F97rTTew47wOwnzWSH56-295" value="..." style="text;html=1;align=center;verticalAlign=middle;resizable=0;points=[];autosize=1;strokeColor=none;fillColor=none;fontSize=15;" vertex="1" parent="1">
          <mxGeometry x="350" y="-90" width="40" height="30" as="geometry" />
        </mxCell>
        <mxCell id="F97rTTew47wOwnzWSH56-296" value="" style="rounded=0;whiteSpace=wrap;html=1;fontSize=15;" vertex="1" parent="1">
          <mxGeometry x="435" y="-170" width="30" height="150" as="geometry" />
        </mxCell>
        <mxCell id="F97rTTew47wOwnzWSH56-297" value="" style="ellipse;whiteSpace=wrap;html=1;aspect=fixed;" vertex="1" parent="1">
          <mxGeometry x="440" y="-50" width="20" height="20" as="geometry" />
        </mxCell>
        <mxCell id="F97rTTew47wOwnzWSH56-298" value="" style="ellipse;whiteSpace=wrap;html=1;aspect=fixed;" vertex="1" parent="1">
          <mxGeometry x="440" y="-160" width="20" height="20" as="geometry" />
        </mxCell>
        <mxCell id="F97rTTew47wOwnzWSH56-299" value="" style="ellipse;whiteSpace=wrap;html=1;aspect=fixed;" vertex="1" parent="1">
          <mxGeometry x="440" y="-130" width="20" height="20" as="geometry" />
        </mxCell>
        <mxCell id="F97rTTew47wOwnzWSH56-300" value="..." style="text;html=1;align=center;verticalAlign=middle;resizable=0;points=[];autosize=1;strokeColor=none;fillColor=none;fontSize=15;" vertex="1" parent="1">
          <mxGeometry x="430" y="-110" width="40" height="30" as="geometry" />
        </mxCell>
        <mxCell id="F97rTTew47wOwnzWSH56-301" value="..." style="text;html=1;align=center;verticalAlign=middle;resizable=0;points=[];autosize=1;strokeColor=none;fillColor=none;fontSize=15;" vertex="1" parent="1">
          <mxGeometry x="430" y="-90" width="40" height="30" as="geometry" />
        </mxCell>
        <mxCell id="F97rTTew47wOwnzWSH56-302" value="..." style="text;html=1;align=center;verticalAlign=middle;resizable=0;points=[];autosize=1;strokeColor=none;fillColor=none;fontSize=15;" vertex="1" parent="1">
          <mxGeometry x="390" y="-100" width="40" height="30" as="geometry" />
        </mxCell>
        <mxCell id="F97rTTew47wOwnzWSH56-307" style="edgeStyle=orthogonalEdgeStyle;rounded=0;orthogonalLoop=1;jettySize=auto;html=1;exitX=0.5;exitY=0;exitDx=0;exitDy=0;fontSize=11;" edge="1" parent="1" source="F97rTTew47wOwnzWSH56-303" target="F97rTTew47wOwnzWSH56-277">
          <mxGeometry relative="1" as="geometry">
            <Array as="points">
              <mxPoint x="260" y="10" />
              <mxPoint x="375" y="10" />
            </Array>
          </mxGeometry>
        </mxCell>
        <mxCell id="F97rTTew47wOwnzWSH56-303" value="注意力打分函数" style="rounded=0;whiteSpace=wrap;html=1;fontSize=11;" vertex="1" parent="1">
          <mxGeometry x="195" y="20" width="130" height="30" as="geometry" />
        </mxCell>
        <mxCell id="F97rTTew47wOwnzWSH56-304" value="" style="endArrow=classic;html=1;rounded=0;fontSize=11;exitX=0.554;exitY=-0.032;exitDx=0;exitDy=0;exitPerimeter=0;entryX=0.5;entryY=1;entryDx=0;entryDy=0;" edge="1" parent="1" source="F97rTTew47wOwnzWSH56-105" target="F97rTTew47wOwnzWSH56-303">
          <mxGeometry width="50" height="50" relative="1" as="geometry">
            <mxPoint x="140" y="70" as="sourcePoint" />
            <mxPoint x="280" y="60" as="targetPoint" />
            <Array as="points">
              <mxPoint x="142" y="60" />
              <mxPoint x="260" y="60" />
            </Array>
          </mxGeometry>
        </mxCell>
        <mxCell id="F97rTTew47wOwnzWSH56-306" value="" style="endArrow=classic;html=1;rounded=0;fontSize=11;exitX=0.667;exitY=0;exitDx=0;exitDy=0;exitPerimeter=0;" edge="1" parent="1" source="F97rTTew47wOwnzWSH56-132">
          <mxGeometry width="50" height="50" relative="1" as="geometry">
            <mxPoint x="180" y="140" as="sourcePoint" />
            <mxPoint x="260" y="50" as="targetPoint" />
            <Array as="points">
              <mxPoint x="380" y="60" />
              <mxPoint x="260" y="60" />
            </Array>
          </mxGeometry>
        </mxCell>
        <mxCell id="F97rTTew47wOwnzWSH56-308" value="" style="endArrow=classic;html=1;rounded=0;fontSize=11;exitX=1.004;exitY=-0.075;exitDx=0;exitDy=0;exitPerimeter=0;entryX=0.5;entryY=1;entryDx=0;entryDy=0;" edge="1" parent="1" source="F97rTTew47wOwnzWSH56-159" target="F97rTTew47wOwnzWSH56-277">
          <mxGeometry width="50" height="50" relative="1" as="geometry">
            <mxPoint x="160" y="140" as="sourcePoint" />
            <mxPoint x="360" y="10" as="targetPoint" />
            <Array as="points">
              <mxPoint x="625" y="10" />
              <mxPoint x="375" y="10" />
            </Array>
          </mxGeometry>
        </mxCell>
        <mxCell id="F97rTTew47wOwnzWSH56-311" value="A" style="html=1;shadow=0;dashed=0;align=center;verticalAlign=middle;shape=mxgraph.arrows2.arrow;dy=0.6;dx=40;flipH=1;notch=0;fontSize=11;" vertex="1" parent="1">
          <mxGeometry x="-150" y="100" width="100" height="70" as="geometry" />
        </mxCell>
        <mxCell id="F97rTTew47wOwnzWSH56-312" value="" style="html=1;shadow=0;dashed=0;align=center;verticalAlign=middle;shape=mxgraph.arrows2.arrow;dy=0.6;dx=40;direction=north;notch=0;fontSize=11;" vertex="1" parent="1">
          <mxGeometry x="344" y="-250" width="70" height="60" as="geometry" />
        </mxCell>
        <mxCell id="F97rTTew47wOwnzWSH56-313" value="&lt;font style=&quot;font-size: 18px;&quot;&gt;输&lt;font style=&quot;font-size: 18px;&quot;&gt;出&lt;/font&gt;&lt;/font&gt;" style="text;html=1;align=center;verticalAlign=middle;resizable=0;points=[];autosize=1;strokeColor=none;fillColor=none;fontSize=11;" vertex="1" parent="1">
          <mxGeometry x="354" y="-290" width="60" height="40" as="geometry" />
        </mxCell>
        <mxCell id="F97rTTew47wOwnzWSH56-315" value="Self-Attention" style="text;html=1;align=center;verticalAlign=middle;resizable=0;points=[];autosize=1;strokeColor=none;fillColor=none;fontSize=18;" vertex="1" parent="1">
          <mxGeometry x="-10" y="-170" width="130" height="40" as="geometry" />
        </mxCell>
      </root>
    </mxGraphModel>
  </diagram>
</mxfile>
